<svg width="32" height="32" viewBox="0 0 32 32" fill="none" xmlns="http://www.w3.org/2000/svg">
<path d="M6.8125 23.0239H7.5625C7.5625 22.6455 7.28072 22.3264 6.90531 22.2796L6.8125 23.0239ZM8.1307 12.1022L8.04563 12.8473C8.33548 12.8804 8.61822 12.7424 8.77047 12.4936L8.1307 12.1022ZM20.1363 15.2974L19.3866 15.318C19.3921 15.5194 19.4785 15.7102 19.6262 15.8473C19.774 15.9843 19.9707 16.0562 20.172 16.0466L20.1363 15.2974ZM20.509 23.0623L20.474 22.3132C20.0738 22.3319 19.759 22.6618 19.759 23.0623H20.509ZM20.509 23.067V23.817C20.9232 23.817 21.259 23.4812 21.259 23.067H20.509ZM6.8125 23.067H6.0625C6.0625 23.4812 6.39829 23.817 6.8125 23.817V23.067ZM6.90531 22.2796C4.56295 21.9875 2.75 19.9881 2.75 17.5664H1.25C1.25 20.7542 3.63587 23.3835 6.71969 23.7681L6.90531 22.2796ZM2.75 17.5664C2.75 14.9431 4.87665 12.8164 7.5 12.8164V11.3164C4.04822 11.3164 1.25 14.1146 1.25 17.5664H2.75ZM7.5 12.8164C7.6848 12.8164 7.86685 12.8269 8.04563 12.8473L8.21577 11.357C7.98063 11.3302 7.74177 11.3164 7.5 11.3164V12.8164ZM8.77047 12.4936C9.77814 10.8464 11.5917 9.75 13.6607 9.75V8.25C11.0479 8.25 8.75977 9.63675 7.49093 11.7108L8.77047 12.4936ZM13.6607 9.75C16.7707 9.75 19.302 12.2287 19.3866 15.318L20.886 15.2769C20.7793 11.3777 17.5854 8.25 13.6607 8.25V9.75ZM20.172 16.0466C20.2224 16.0442 20.2732 16.043 20.3243 16.043V14.543C20.2494 14.543 20.1748 14.5448 20.1006 14.5483L20.172 16.0466ZM20.3243 16.043C22.0568 16.043 23.4612 17.4474 23.4612 19.1798H24.9612C24.9612 16.619 22.8852 14.543 20.3243 14.543V16.043ZM23.4612 19.1798C23.4612 20.8621 22.1366 22.2354 20.474 22.3132L20.544 23.8115C23.0032 23.6965 24.9612 21.667 24.9612 19.1798H23.4612ZM19.759 23.0623V23.067H21.259V23.0623H19.759ZM20.509 22.317H6.8125V23.817H20.509V22.317ZM7.5625 23.067V23.0239H6.0625V23.067H7.5625Z" fill="#89B6D8"/>
<path d="M24.5495 20H25.8333C27.6306 19.9149 28.9999 18.4681 28.9999 16.6809C28.9999 14.8085 27.4594 13.3617 25.6621 13.3617C25.5765 13.3617 25.5765 13.3617 25.4909 13.3617C25.4053 10.383 22.9233 8 19.9279 8C18.5879 8 17.3272 8.47325 16.3618 9.25867" stroke="#89B6D8" stroke-width="1.5" stroke-miterlimit="10" stroke-linecap="round" stroke-linejoin="round"/>
</svg>
