<svg width="32" height="32" viewBox="0 0 32 32" fill="none" xmlns="http://www.w3.org/2000/svg">
<path d="M15.4941 15.4727V17.4504" stroke="#83A9CC" stroke-width="1.5" stroke-linecap="round" stroke-linejoin="round"/>
<path d="M13.627 16.4921L15.4494 17.481" stroke="#83A9CC" stroke-width="1.5" stroke-linecap="round" stroke-linejoin="round"/>
<path d="M13.6328 18.5201L15.4583 17.5312" stroke="#83A9CC" stroke-width="1.5" stroke-linecap="round" stroke-linejoin="round"/>
<path d="M15.5088 19.5286V17.5508" stroke="#83A9CC" stroke-width="1.5" stroke-linecap="round" stroke-linejoin="round"/>
<path d="M17.3723 18.5084L15.5498 17.5195" stroke="#83A9CC" stroke-width="1.5" stroke-linecap="round" stroke-linejoin="round"/>
<path d="M17.3665 16.4805L15.541 17.4694" stroke="#83A9CC" stroke-width="1.5" stroke-linecap="round" stroke-linejoin="round"/>
<path d="M19.4941 21.4727V23.4504" stroke="#83A9CC" stroke-width="1.5" stroke-linecap="round" stroke-linejoin="round"/>
<path d="M17.627 22.4921L19.4494 23.481" stroke="#83A9CC" stroke-width="1.5" stroke-linecap="round" stroke-linejoin="round"/>
<path d="M17.6328 24.5201L19.4583 23.5312" stroke="#83A9CC" stroke-width="1.5" stroke-linecap="round" stroke-linejoin="round"/>
<path d="M19.5088 25.5286V23.5508" stroke="#83A9CC" stroke-width="1.5" stroke-linecap="round" stroke-linejoin="round"/>
<path d="M21.3723 24.5084L19.5498 23.5195" stroke="#83A9CC" stroke-width="1.5" stroke-linecap="round" stroke-linejoin="round"/>
<path d="M21.3665 22.4805L19.541 23.4694" stroke="#83A9CC" stroke-width="1.5" stroke-linecap="round" stroke-linejoin="round"/>
<path d="M11.9932 23.5664V25.9397" stroke="#83A9CC" stroke-width="1.5" stroke-linecap="round" stroke-linejoin="round"/>
<path d="M9.75293 24.7891L11.9399 25.9757" stroke="#83A9CC" stroke-width="1.5" stroke-linecap="round" stroke-linejoin="round"/>
<path d="M9.75977 27.2238L11.9503 26.0371" stroke="#83A9CC" stroke-width="1.5" stroke-linecap="round" stroke-linejoin="round"/>
<path d="M12.0107 28.4339V26.0605" stroke="#83A9CC" stroke-width="1.5" stroke-linecap="round" stroke-linejoin="round"/>
<path d="M14.2475 27.2101L12.0605 26.0234" stroke="#83A9CC" stroke-width="1.5" stroke-linecap="round" stroke-linejoin="round"/>
<path d="M14.2403 24.7773L12.0498 25.964" stroke="#83A9CC" stroke-width="1.5" stroke-linecap="round" stroke-linejoin="round"/>
<path d="M9.1 20C6.5 19.6 4.5 17.3 4.5 14.6C4.5 11.6 7 9.1 10 9.1C10.2 9.1 10.4 9.1 10.6 9.1C11.7 7.2 13.8 6 16.1 6C19.6 6 22.5 8.8 22.6 12.3C22.7 12.3 22.7 12.3 22.8 12.3C24.9 12.3 26.7 14 26.7 16.2C26.7 17.9 25.6 19.4 24 19.9" stroke="#83A9CC" stroke-width="1.5" stroke-miterlimit="10" stroke-linecap="round" stroke-linejoin="round"/>
</svg>
