<svg width="32" height="32" viewBox="0 0 32 32" fill="none" xmlns="http://www.w3.org/2000/svg">
<path d="M9.8125 22.0239H10.5625C10.5625 21.6455 10.2807 21.3264 9.90531 21.2796L9.8125 22.0239ZM11.1307 11.1022L11.0456 11.8473C11.3355 11.8804 11.6182 11.7424 11.7705 11.4936L11.1307 11.1022ZM23.1363 14.2974L22.3866 14.318C22.3921 14.5194 22.4785 14.7102 22.6262 14.8473C22.774 14.9843 22.9707 15.0562 23.172 15.0466L23.1363 14.2974ZM23.509 22.0623L23.474 21.3132C23.0738 21.3319 22.759 21.6618 22.759 22.0623H23.509ZM23.509 22.067V22.817C23.9232 22.817 24.259 22.4812 24.259 22.067H23.509ZM9.8125 22.067H9.0625C9.0625 22.4812 9.39829 22.817 9.8125 22.817V22.067ZM9.90531 21.2796C7.56295 20.9875 5.75 18.9881 5.75 16.5664H4.25C4.25 19.7542 6.63587 22.3835 9.71969 22.7681L9.90531 21.2796ZM5.75 16.5664C5.75 13.9431 7.87665 11.8164 10.5 11.8164V10.3164C7.04822 10.3164 4.25 13.1146 4.25 16.5664H5.75ZM10.5 11.8164C10.6848 11.8164 10.8668 11.8269 11.0456 11.8473L11.2158 10.357C10.9806 10.3302 10.7418 10.3164 10.5 10.3164V11.8164ZM11.7705 11.4936C12.7781 9.84645 14.5917 8.75 16.6607 8.75V7.25C14.0479 7.25 11.7598 8.63675 10.4909 10.7108L11.7705 11.4936ZM16.6607 8.75C19.7707 8.75 22.302 11.2287 22.3866 14.318L23.886 14.2769C23.7793 10.3777 20.5854 7.25 16.6607 7.25V8.75ZM23.172 15.0466C23.2224 15.0442 23.2732 15.043 23.3243 15.043V13.543C23.2494 13.543 23.1748 13.5448 23.1006 13.5483L23.172 15.0466ZM23.3243 15.043C25.0568 15.043 26.4612 16.4474 26.4612 18.1798H27.9612C27.9612 15.619 25.8852 13.543 23.3243 13.543V15.043ZM26.4612 18.1798C26.4612 19.8621 25.1366 21.2354 23.474 21.3132L23.544 22.8115C26.0032 22.6965 27.9612 20.667 27.9612 18.1798H26.4612ZM22.759 22.0623V22.067H24.259V22.0623H22.759ZM23.509 21.317H9.8125V22.817H23.509V21.317ZM10.5625 22.067V22.0239H9.0625V22.067H10.5625Z" fill="#83A9CC"/>
<path d="M14.5 28.5L16 25" stroke="#83A9CC" stroke-width="1.5" stroke-linecap="round" stroke-linejoin="round"/>
<path d="M20 28.5L21.5 25" stroke="#83A9CC" stroke-width="1.5" stroke-linecap="round" stroke-linejoin="round"/>
<path d="M9 28.5L10.5 25" stroke="#83A9CC" stroke-width="1.5" stroke-linecap="round" stroke-linejoin="round"/>
</svg>
