<svg width="32" height="32" viewBox="0 0 32 32" fill="none" xmlns="http://www.w3.org/2000/svg">
<path d="M20.9475 3.62844L20.584 2.54492" stroke="#FFC038" stroke-width="1.5" stroke-linecap="round"/>
<path d="M29.6304 7.94754L30.7139 7.58398" stroke="#FFC038" stroke-width="1.5" stroke-linecap="round"/>
<path d="M29.2697 13.1843L30.293 13.6934" stroke="#FFC038" stroke-width="1.5" stroke-linecap="round"/>
<path d="M26.6937 2.96895L26.1846 3.99219" stroke="#FFC038" stroke-width="1.5" stroke-linecap="round"/>
<path d="M19.9998 7.13014C20.4012 6.77899 20.8772 6.49973 21.4143 6.31949C23.5914 5.589 25.9485 6.7617 26.679 8.93878C27.2483 10.6356 26.6615 12.4418 25.3441 13.502" stroke="#FFC038" stroke-width="1.5"/>
<path d="M16.2998 25L18.7998 20H12.7998L15.2998 15" stroke="#FFC038" stroke-width="1.5" stroke-linecap="round" stroke-linejoin="round"/>
<path d="M11 26.5L12.5 23" stroke="#142232" stroke-width="1.5" stroke-linecap="round" stroke-linejoin="round"/>
<path d="M14.5 29.5L15.3553 27.3379" stroke="#142232" stroke-width="1.5" stroke-linecap="round" stroke-linejoin="round"/>
<path d="M10 20H9.3C6.6 19.7 4.5 17.3 4.5 14.5C4.5 11.5 7 9 10 9C10.2 9 10.4 9 10.6 9C11.7 7.2 13.8 6 16.1 6C19.6 6 22.5 8.8 22.6 12.3C22.7 12.3 22.7 12.3 22.8 12.3C24.9 12.3 26.7 14 26.7 16.2C26.7 18.3 25.1 20 23 20.1H21.5" stroke="#142232" stroke-width="1.5" stroke-miterlimit="10" stroke-linecap="round" stroke-linejoin="round"/>
</svg>
