<svg width="32" height="32" viewBox="0 0 32 32" fill="none" xmlns="http://www.w3.org/2000/svg">
<path d="M19.8186 5.49953L19.4551 4.41602" stroke="#FFC038" stroke-width="1.5" stroke-linecap="round"/>
<path d="M28.5014 9.81864L29.585 9.45508" stroke="#FFC038" stroke-width="1.5" stroke-linecap="round"/>
<path d="M28.1408 15.0554L29.1641 15.5645" stroke="#FFC038" stroke-width="1.5" stroke-linecap="round"/>
<path d="M25.5648 4.84005L25.0557 5.86328" stroke="#FFC038" stroke-width="1.5" stroke-linecap="round"/>
<path d="M24.1256 15.4429C25.5061 14.3937 26.1327 12.5443 25.5505 10.8093C24.82 8.63221 22.463 7.45951 20.2859 8.18999C19.5531 8.43586 18.9342 8.86599 18.4632 9.41151" stroke="#FFC038" stroke-width="1.5"/>
<path d="M7.8125 22.0239H8.5625C8.5625 21.6455 8.28072 21.3264 7.90531 21.2796L7.8125 22.0239ZM9.1307 11.1022L9.04563 11.8473C9.33548 11.8804 9.61822 11.7424 9.77047 11.4936L9.1307 11.1022ZM21.1363 14.2974L20.3866 14.318C20.3921 14.5194 20.4785 14.7102 20.6262 14.8473C20.774 14.9843 20.9707 15.0562 21.172 15.0466L21.1363 14.2974ZM21.509 22.0623L21.474 21.3132C21.0738 21.3319 20.759 21.6618 20.759 22.0623H21.509ZM21.509 22.067V22.817C21.9232 22.817 22.259 22.4812 22.259 22.067H21.509ZM7.8125 22.067H7.0625C7.0625 22.4812 7.39829 22.817 7.8125 22.817V22.067ZM7.90531 21.2796C5.56295 20.9875 3.75 18.9881 3.75 16.5664H2.25C2.25 19.7542 4.63587 22.3835 7.71969 22.7681L7.90531 21.2796ZM3.75 16.5664C3.75 13.9431 5.87665 11.8164 8.5 11.8164V10.3164C5.04822 10.3164 2.25 13.1146 2.25 16.5664H3.75ZM8.5 11.8164C8.6848 11.8164 8.86685 11.8269 9.04563 11.8473L9.21577 10.357C8.98063 10.3302 8.74177 10.3164 8.5 10.3164V11.8164ZM9.77047 11.4936C10.7781 9.84645 12.5917 8.75 14.6607 8.75V7.25C12.0479 7.25 9.75977 8.63675 8.49093 10.7108L9.77047 11.4936ZM14.6607 8.75C17.7707 8.75 20.302 11.2287 20.3866 14.318L21.886 14.2769C21.7793 10.3777 18.5854 7.25 14.6607 7.25V8.75ZM21.172 15.0466C21.2224 15.0442 21.2732 15.043 21.3243 15.043V13.543C21.2494 13.543 21.1748 13.5448 21.1006 13.5483L21.172 15.0466ZM21.3243 15.043C23.0568 15.043 24.4612 16.4474 24.4612 18.1798H25.9612C25.9612 15.619 23.8852 13.543 21.3243 13.543V15.043ZM24.4612 18.1798C24.4612 19.8621 23.1366 21.2354 21.474 21.3132L21.544 22.8115C24.0032 22.6965 25.9612 20.667 25.9612 18.1798H24.4612ZM20.759 22.0623V22.067H22.259V22.0623H20.759ZM21.509 21.317H7.8125V22.817H21.509V21.317ZM8.5625 22.067V22.0239H7.0625V22.067H8.5625Z" fill="#83A9CC"/>
<path d="M9.5 28.5L11 25" stroke="#83A9CC" stroke-width="1.5" stroke-linecap="round" stroke-linejoin="round"/>
<path d="M15 28.5L16.5 25" stroke="#83A9CC" stroke-width="1.5" stroke-linecap="round" stroke-linejoin="round"/>

</svg>
