<svg width="32" height="32" viewBox="0 0 32 32" fill="none" xmlns="http://www.w3.org/2000/svg">
<path d="M19.8186 7.49953L19.4551 6.41602" stroke="#FFC038" stroke-width="1.5" stroke-linecap="round"/>
<path d="M28.5014 11.8186L29.585 11.4551" stroke="#FFC038" stroke-width="1.5" stroke-linecap="round"/>
<path d="M28.1408 17.0554L29.1641 17.5645" stroke="#FFC038" stroke-width="1.5" stroke-linecap="round"/>
<path d="M25.5648 6.84005L25.0557 7.86328" stroke="#FFC038" stroke-width="1.5" stroke-linecap="round"/>
<path d="M18.5301 11.3361C18.9921 10.8267 19.5872 10.425 20.2855 10.1906C22.4626 9.46014 24.8197 10.6328 25.5502 12.8099C26.1433 14.5776 25.4817 16.464 24.0464 17.502" stroke="#FFC038" stroke-width="1.5"/>
<path d="M7.8125 24.0239H8.5625C8.5625 23.6455 8.28072 23.3264 7.90531 23.2796L7.8125 24.0239ZM9.1307 13.1022L9.04563 13.8473C9.33548 13.8804 9.61822 13.7424 9.77047 13.4936L9.1307 13.1022ZM21.1363 16.2974L20.3866 16.318C20.3921 16.5194 20.4785 16.7102 20.6262 16.8473C20.774 16.9843 20.9707 17.0562 21.172 17.0466L21.1363 16.2974ZM21.509 24.0623L21.474 23.3132C21.0738 23.3319 20.759 23.6618 20.759 24.0623H21.509ZM21.509 24.067V24.817C21.9232 24.817 22.259 24.4812 22.259 24.067H21.509ZM7.8125 24.067H7.0625C7.0625 24.4812 7.39829 24.817 7.8125 24.817V24.067ZM7.90531 23.2796C5.56295 22.9875 3.75 20.9881 3.75 18.5664H2.25C2.25 21.7542 4.63587 24.3835 7.71969 24.7681L7.90531 23.2796ZM3.75 18.5664C3.75 15.9431 5.87665 13.8164 8.5 13.8164V12.3164C5.04822 12.3164 2.25 15.1146 2.25 18.5664H3.75ZM8.5 13.8164C8.6848 13.8164 8.86685 13.8269 9.04563 13.8473L9.21577 12.357C8.98063 12.3302 8.74177 12.3164 8.5 12.3164V13.8164ZM9.77047 13.4936C10.7781 11.8464 12.5917 10.75 14.6607 10.75V9.25C12.0479 9.25 9.75977 10.6367 8.49093 12.7108L9.77047 13.4936ZM14.6607 10.75C17.7707 10.75 20.302 13.2287 20.3866 16.318L21.886 16.2769C21.7793 12.3777 18.5854 9.25 14.6607 9.25V10.75ZM21.172 17.0466C21.2224 17.0442 21.2732 17.043 21.3243 17.043V15.543C21.2494 15.543 21.1748 15.5448 21.1006 15.5483L21.172 17.0466ZM21.3243 17.043C23.0568 17.043 24.4612 18.4474 24.4612 20.1798H25.9612C25.9612 17.619 23.8852 15.543 21.3243 15.543V17.043ZM24.4612 20.1798C24.4612 21.8621 23.1366 23.2354 21.474 23.3132L21.544 24.8115C24.0032 24.6965 25.9612 22.667 25.9612 20.1798H24.4612ZM20.759 24.0623V24.067H22.259V24.0623H20.759ZM21.509 23.317H7.8125V24.817H21.509V23.317ZM8.5625 24.067V24.0239H7.0625V24.067H8.5625Z" fill="#83A9CC"/>
</svg>
