<svg width="32" height="32" viewBox="0 0 32 32" fill="none" xmlns="http://www.w3.org/2000/svg">
<path d="M13.9912 20.6602V23.429" stroke="#83A9CC" stroke-width="1.5" stroke-linecap="round" stroke-linejoin="round"/>
<path d="M11.3779 22.0879L13.9294 23.4723" stroke="#83A9CC" stroke-width="1.5" stroke-linecap="round" stroke-linejoin="round"/>
<path d="M11.3857 24.9255L13.9414 23.541" stroke="#83A9CC" stroke-width="1.5" stroke-linecap="round" stroke-linejoin="round"/>
<path d="M14.0127 26.3372V23.5684" stroke="#83A9CC" stroke-width="1.5" stroke-linecap="round" stroke-linejoin="round"/>
<path d="M16.6218 24.9098L14.0703 23.5254" stroke="#83A9CC" stroke-width="1.5" stroke-linecap="round" stroke-linejoin="round"/>
<path d="M16.6132 22.0723L14.0576 23.4567" stroke="#83A9CC" stroke-width="1.5" stroke-linecap="round" stroke-linejoin="round"/>
<path d="M18.4941 15.4727V17.4504" stroke="#83A9CC" stroke-width="1.5" stroke-linecap="round" stroke-linejoin="round"/>
<path d="M16.627 16.4921L18.4494 17.481" stroke="#83A9CC" stroke-width="1.5" stroke-linecap="round" stroke-linejoin="round"/>
<path d="M16.6328 18.5201L18.4583 17.5312" stroke="#83A9CC" stroke-width="1.5" stroke-linecap="round" stroke-linejoin="round"/>
<path d="M18.5088 19.5286V17.5508" stroke="#83A9CC" stroke-width="1.5" stroke-linecap="round" stroke-linejoin="round"/>
<path d="M20.3723 18.5084L18.5498 17.5195" stroke="#83A9CC" stroke-width="1.5" stroke-linecap="round" stroke-linejoin="round"/>
<path d="M20.3665 16.4805L18.541 17.4694" stroke="#83A9CC" stroke-width="1.5" stroke-linecap="round" stroke-linejoin="round"/>
<path d="M9.1 20C6.5 19.6 4.5 17.3 4.5 14.6C4.5 11.6 7 9.1 10 9.1C10.2 9.1 10.4 9.1 10.6 9.1C11.7 7.2 13.8 6 16.1 6C19.6 6 22.5 8.8 22.6 12.3C22.7 12.3 22.7 12.3 22.8 12.3C24.9 12.3 26.7 14 26.7 16.2C26.7 17.9 25.6 19.4 24 19.9" stroke="#83A9CC" stroke-width="1.5" stroke-miterlimit="10" stroke-linecap="round" stroke-linejoin="round"/>
</svg>
