<svg width="32" height="32" viewBox="0 0 32 32" fill="none" xmlns="http://www.w3.org/2000/svg">
<path d="M16.001 7L16.001 5" stroke="#FFC038" stroke-width="1.75" stroke-linecap="round"/>
<path d="M16.001 27L16.001 25" stroke="#FFC038" stroke-width="1.75" stroke-linecap="round"/>
<path d="M25 16L27 16" stroke="#FFC038" stroke-width="1.75" stroke-linecap="round"/>
<path d="M5 16L7 16" stroke="#FFC038" stroke-width="1.75" stroke-linecap="round"/>
<path d="M22.3641 9.63687L23.7783 8.22266" stroke="#FFC038" stroke-width="1.75" stroke-linecap="round"/>
<path d="M8.22251 23.7775L9.63672 22.3633" stroke="#FFC038" stroke-width="1.75" stroke-linecap="round"/>
<path d="M22.3631 22.3631L23.7773 23.7773" stroke="#FFC038" stroke-width="1.75" stroke-linecap="round"/>
<path d="M8.22251 8.22251L9.63672 9.63672" stroke="#FFC038" stroke-width="1.75" stroke-linecap="round"/>
<path d="M22.001 16C22.001 19.3137 19.3147 22 16.001 22C12.6873 22 10.001 19.3137 10.001 16C10.001 14.118 10.8674 12.4384 12.2232 11.3383C13.2546 10.5015 14.5692 10 16.001 10C19.3147 10 22.001 12.6863 22.001 16Z" stroke="#FFC038" stroke-width="1.75"/>
</svg>
