<?xml version="1.0" encoding="utf-8" standalone="no"?>
<!DOCTYPE svg PUBLIC "-//W3C//DTD SVG 1.1//EN"
  "http://www.w3.org/Graphics/SVG/1.1/DTD/svg11.dtd">
<svg xmlns:xlink="http://www.w3.org/1999/xlink" width="293.4pt" height="69.84pt" viewBox="0 0 293.4 69.84" xmlns="http://www.w3.org/2000/svg" version="1.1">
 <metadata>
  <rdf:RDF xmlns:dc="http://purl.org/dc/elements/1.1/" xmlns:cc="http://creativecommons.org/ns#" xmlns:rdf="http://www.w3.org/1999/02/22-rdf-syntax-ns#">
   <cc:Work>
    <dc:type rdf:resource="http://purl.org/dc/dcmitype/StillImage"/>
    <dc:date>2023-04-02T19:29:36.539752</dc:date>
    <dc:format>image/svg+xml</dc:format>
    <dc:creator>
     <cc:Agent>
      <dc:title>Matplotlib v3.7.0, https://matplotlib.org/</dc:title>
     </cc:Agent>
    </dc:creator>
   </cc:Work>
  </rdf:RDF>
 </metadata>
 <defs>
  <style type="text/css">*{stroke-linejoin: round; stroke-linecap: butt}</style>
 </defs>
 <g id="figure_1">
  <g id="patch_1">
   <path d="M 0 69.84 
L 293.4 69.84 
L 293.4 0 
L 0 0 
L 0 69.84 
z
" style="fill: none"/>
  </g>
  <g id="axes_1">
   <g id="patch_2">
    <path d="M 7.2 62.64 
L 286.2 62.64 
L 286.2 7.2 
L 7.2 7.2 
L 7.2 62.64 
z
" style="fill: none"/>
   </g>
   <g id="PolyCollection_1"/>
   <g id="PolyCollection_2">
    <defs>
     <path id="m4efd4bd51c" d="M 19.881818 -9.72 
L 19.881818 -21.029268 
L 39.392308 -24.901463 
L 58.902797 -29.173171 
L 78.413287 -33.106829 
L 97.923776 -35.657561 
L 117.434266 -39.529756 
L 136.944755 -43.524878 
L 156.455245 -45.36878 
L 175.965734 -47.52 
L 195.476224 -50.285854 
L 214.986713 -51.822439 
L 234.497203 -54.89561 
L 254.007692 -57.046829 
L 273.518182 -60.12 
L 273.518182 -9.72 
L 273.518182 -9.72 
L 254.007692 -9.72 
L 234.497203 -9.72 
L 214.986713 -9.72 
L 195.476224 -9.72 
L 175.965734 -9.72 
L 156.455245 -9.72 
L 136.944755 -9.72 
L 117.434266 -9.72 
L 97.923776 -9.72 
L 78.413287 -9.72 
L 58.902797 -9.72 
L 39.392308 -9.72 
L 19.881818 -9.72 
z
"/>
    </defs>
    <g clip-path="url(#p0848558dde)">
     <use xlink:href="#m4efd4bd51c" x="0" y="69.84" style="fill: #708090; fill-opacity: 0.15"/>
    </g>
   </g>
   <g id="matplotlib.axis_1"/>
   <g id="matplotlib.axis_2"/>
   <g id="line2d_1">
    <path d="M 19.881818 48.810732 
L 39.392308 44.938537 
L 58.902797 40.666829 
L 78.413287 36.733171 
L 97.923776 34.182439 
L 117.434266 30.310244 
L 136.944755 26.315122 
L 156.455245 24.47122 
L 175.965734 22.32 
L 195.476224 19.554146 
L 214.986713 18.017561 
L 234.497203 14.94439 
L 254.007692 12.793171 
L 273.518182 9.72 
" clip-path="url(#p0848558dde)" style="fill: none; stroke: #000000; stroke-width: 1.5; stroke-linecap: square"/>
   </g>
   <g id="PathCollection_1">
    <defs>
     <path id="C0_0_8e06baaf82" d="M 0 3.535534 
C 0.937635 3.535534 1.836992 3.163008 2.5 2.5 
C 3.163008 1.836992 3.535534 0.937635 3.535534 -0 
C 3.535534 -0.937635 3.163008 -1.836992 2.5 -2.5 
C 1.836992 -3.163008 0.937635 -3.535534 0 -3.535534 
C -0.937635 -3.535534 -1.836992 -3.163008 -2.5 -2.5 
C -3.163008 -1.836992 -3.535534 -0.937635 -3.535534 0 
C -3.535534 0.937635 -3.163008 1.836992 -2.5 2.5 
C -1.836992 3.163008 -0.937635 3.535534 0 3.535534 
z
"/>
    </defs>
    <use xlink:href="#C0_0_8e06baaf82" x="19.881818" y="48.810732"/>
    <use xlink:href="#C0_0_8e06baaf82" x="214.986713" y="18.017561" style="fill: #0000ff"/>
    <use xlink:href="#C0_0_8e06baaf82" x="273.518182" y="9.72"/>
   </g>
  </g>
 </g>
 <defs>
  <clipPath id="p0848558dde">
   <rect x="7.2" y="7.2" width="279" height="55.44"/>
  </clipPath>
 </defs>
</svg>
