<?xml version="1.0" encoding="utf-8" standalone="no"?>
<!DOCTYPE svg PUBLIC "-//W3C//DTD SVG 1.1//EN"
  "http://www.w3.org/Graphics/SVG/1.1/DTD/svg11.dtd">
<svg xmlns:xlink="http://www.w3.org/1999/xlink" width="293.4pt" height="69.84pt" viewBox="0 0 293.4 69.84" xmlns="http://www.w3.org/2000/svg" version="1.1">
 <metadata>
  <rdf:RDF xmlns:dc="http://purl.org/dc/elements/1.1/" xmlns:cc="http://creativecommons.org/ns#" xmlns:rdf="http://www.w3.org/1999/02/22-rdf-syntax-ns#">
   <cc:Work>
    <dc:type rdf:resource="http://purl.org/dc/dcmitype/StillImage"/>
    <dc:date>2023-04-02T19:29:36.573570</dc:date>
    <dc:format>image/svg+xml</dc:format>
    <dc:creator>
     <cc:Agent>
      <dc:title>Matplotlib v3.7.0, https://matplotlib.org/</dc:title>
     </cc:Agent>
    </dc:creator>
   </cc:Work>
  </rdf:RDF>
 </metadata>
 <defs>
  <style type="text/css">*{stroke-linejoin: round; stroke-linecap: butt}</style>
 </defs>
 <g id="figure_1">
  <g id="patch_1">
   <path d="M 0 69.84 
L 293.4 69.84 
L 293.4 0 
L 0 0 
L 0 69.84 
z
" style="fill: none"/>
  </g>
  <g id="axes_1">
   <g id="patch_2">
    <path d="M 7.2 62.64 
L 286.2 62.64 
L 286.2 7.2 
L 7.2 7.2 
L 7.2 62.64 
z
" style="fill: none"/>
   </g>
   <g id="PolyCollection_1"/>
   <g id="PolyCollection_2">
    <defs>
     <path id="mbdd025512e" d="M 19.881818 -9.72 
L 19.881818 -10.481642 
L 39.392308 -10.776269 
L 58.902797 -11.481493 
L 78.413287 -12.490746 
L 97.923776 -13.396567 
L 117.434266 -14.55 
L 136.944755 -16.95403 
L 156.455245 -20.420597 
L 175.965734 -27.460299 
L 195.476224 -30.014776 
L 214.986713 -34.73194 
L 234.497203 -50.403582 
L 254.007692 -60.12 
L 273.518182 -58.02 
L 273.518182 -9.72 
L 273.518182 -9.72 
L 254.007692 -9.72 
L 234.497203 -9.72 
L 214.986713 -9.72 
L 195.476224 -9.72 
L 175.965734 -9.72 
L 156.455245 -9.72 
L 136.944755 -9.72 
L 117.434266 -9.72 
L 97.923776 -9.72 
L 78.413287 -9.72 
L 58.902797 -9.72 
L 39.392308 -9.72 
L 19.881818 -9.72 
z
"/>
    </defs>
    <g clip-path="url(#p764f830bb4)">
     <use xlink:href="#mbdd025512e" x="0" y="69.84" style="fill: #708090; fill-opacity: 0.15"/>
    </g>
   </g>
   <g id="matplotlib.axis_1"/>
   <g id="matplotlib.axis_2"/>
   <g id="line2d_1">
    <path d="M 19.881818 59.358358 
L 39.392308 59.063731 
L 58.902797 58.358507 
L 78.413287 57.349254 
L 97.923776 56.443433 
L 117.434266 55.29 
L 136.944755 52.88597 
L 156.455245 49.419403 
L 175.965734 42.379701 
L 195.476224 39.825224 
L 214.986713 35.10806 
L 234.497203 19.436418 
L 254.007692 9.72 
L 273.518182 11.82 
" clip-path="url(#p764f830bb4)" style="fill: none; stroke: #000000; stroke-width: 1.5; stroke-linecap: square"/>
   </g>
   <g id="PathCollection_1">
    <defs>
     <path id="C0_0_874a699a91" d="M 0 3.535534 
C 0.937635 3.535534 1.836992 3.163008 2.5 2.5 
C 3.163008 1.836992 3.535534 0.937635 3.535534 -0 
C 3.535534 -0.937635 3.163008 -1.836992 2.5 -2.5 
C 1.836992 -3.163008 0.937635 -3.535534 0 -3.535534 
C -0.937635 -3.535534 -1.836992 -3.163008 -2.5 -2.5 
C -3.163008 -1.836992 -3.535534 -0.937635 -3.535534 0 
C -3.535534 0.937635 -3.163008 1.836992 -2.5 2.5 
C -1.836992 3.163008 -0.937635 3.535534 0 3.535534 
z
"/>
    </defs>
    <use xlink:href="#C0_0_874a699a91" x="19.881818" y="59.358358"/>
    <use xlink:href="#C0_0_874a699a91" x="214.986713" y="35.10806" style="fill: #0000ff"/>
    <use xlink:href="#C0_0_874a699a91" x="273.518182" y="11.82"/>
   </g>
  </g>
 </g>
 <defs>
  <clipPath id="p764f830bb4">
   <rect x="7.2" y="7.2" width="279" height="55.44"/>
  </clipPath>
 </defs>
</svg>
