<?xml version="1.0" encoding="utf-8" standalone="no"?>
<!DOCTYPE svg PUBLIC "-//W3C//DTD SVG 1.1//EN"
  "http://www.w3.org/Graphics/SVG/1.1/DTD/svg11.dtd">
<svg xmlns:xlink="http://www.w3.org/1999/xlink" width="293.4pt" height="69.84pt" viewBox="0 0 293.4 69.84" xmlns="http://www.w3.org/2000/svg" version="1.1">
 <metadata>
  <rdf:RDF xmlns:dc="http://purl.org/dc/elements/1.1/" xmlns:cc="http://creativecommons.org/ns#" xmlns:rdf="http://www.w3.org/1999/02/22-rdf-syntax-ns#">
   <cc:Work>
    <dc:type rdf:resource="http://purl.org/dc/dcmitype/StillImage"/>
    <dc:date>2023-04-02T19:29:36.929413</dc:date>
    <dc:format>image/svg+xml</dc:format>
    <dc:creator>
     <cc:Agent>
      <dc:title>Matplotlib v3.7.0, https://matplotlib.org/</dc:title>
     </cc:Agent>
    </dc:creator>
   </cc:Work>
  </rdf:RDF>
 </metadata>
 <defs>
  <style type="text/css">*{stroke-linejoin: round; stroke-linecap: butt}</style>
 </defs>
 <g id="figure_1">
  <g id="patch_1">
   <path d="M 0 69.84 
L 293.4 69.84 
L 293.4 0 
L 0 0 
L 0 69.84 
z
" style="fill: none"/>
  </g>
  <g id="axes_1">
   <g id="patch_2">
    <path d="M 7.2 62.64 
L 286.2 62.64 
L 286.2 7.2 
L 7.2 7.2 
L 7.2 62.64 
z
" style="fill: none"/>
   </g>
   <g id="PolyCollection_1"/>
   <g id="PolyCollection_2">
    <defs>
     <path id="m88e089b9f1" d="M 19.881818 -9.72 
L 19.881818 -40.03049 
L 39.392308 -46.726993 
L 58.902797 -47.784336 
L 78.413287 -50.251469 
L 97.923776 -52.013706 
L 117.434266 -52.718601 
L 136.944755 -56.243077 
L 156.455245 -57.652867 
L 175.965734 -58.357762 
L 195.476224 -58.005315 
L 214.986713 -57.652867 
L 234.497203 -57.30042 
L 254.007692 -56.243077 
L 273.518182 -60.12 
L 273.518182 -9.72 
L 273.518182 -9.72 
L 254.007692 -9.72 
L 234.497203 -9.72 
L 214.986713 -9.72 
L 195.476224 -9.72 
L 175.965734 -9.72 
L 156.455245 -9.72 
L 136.944755 -9.72 
L 117.434266 -9.72 
L 97.923776 -9.72 
L 78.413287 -9.72 
L 58.902797 -9.72 
L 39.392308 -9.72 
L 19.881818 -9.72 
z
"/>
    </defs>
    <g clip-path="url(#pe31b515448)">
     <use xlink:href="#m88e089b9f1" x="0" y="69.84" style="fill: #708090; fill-opacity: 0.15"/>
    </g>
   </g>
   <g id="matplotlib.axis_1"/>
   <g id="matplotlib.axis_2"/>
   <g id="line2d_1">
    <path d="M 19.881818 29.80951 
L 39.392308 23.113007 
L 58.902797 22.055664 
L 78.413287 19.588531 
L 97.923776 17.826294 
L 117.434266 17.121399 
L 136.944755 13.596923 
L 156.455245 12.187133 
L 175.965734 11.482238 
L 195.476224 11.834685 
L 214.986713 12.187133 
L 234.497203 12.53958 
L 254.007692 13.596923 
L 273.518182 9.72 
" clip-path="url(#pe31b515448)" style="fill: none; stroke: #000000; stroke-width: 1.5; stroke-linecap: square"/>
   </g>
   <g id="PathCollection_1">
    <defs>
     <path id="C0_0_b319f4610b" d="M 0 3.535534 
C 0.937635 3.535534 1.836992 3.163008 2.5 2.5 
C 3.163008 1.836992 3.535534 0.937635 3.535534 -0 
C 3.535534 -0.937635 3.163008 -1.836992 2.5 -2.5 
C 1.836992 -3.163008 0.937635 -3.535534 0 -3.535534 
C -0.937635 -3.535534 -1.836992 -3.163008 -2.5 -2.5 
C -3.163008 -1.836992 -3.535534 -0.937635 -3.535534 0 
C -3.535534 0.937635 -3.163008 1.836992 -2.5 2.5 
C -1.836992 3.163008 -0.937635 3.535534 0 3.535534 
z
"/>
    </defs>
    <use xlink:href="#C0_0_b319f4610b" x="19.881818" y="29.80951"/>
    <use xlink:href="#C0_0_b319f4610b" x="214.986713" y="12.187133" style="fill: #0000ff"/>
    <use xlink:href="#C0_0_b319f4610b" x="273.518182" y="9.72"/>
   </g>
  </g>
 </g>
 <defs>
  <clipPath id="pe31b515448">
   <rect x="7.2" y="7.2" width="279" height="55.44"/>
  </clipPath>
 </defs>
</svg>
